<?xml version="1.0" standalone="no"?>
<!DOCTYPE svg PUBLIC "-//W3C//DTD SVG 20010904//EN"
 "http://www.w3.org/TR/2001/REC-SVG-20010904/DTD/svg10.dtd">
<svg version="1.0" xmlns="http://www.w3.org/2000/svg"
 width="500.000000pt" height="500.000000pt" viewBox="0 0 500.000000 500.000000"
 preserveAspectRatio="xMidYMid meet">
<metadata>
Created by potrace 1.11, written by Peter Selinger 2001-2013
</metadata>
<g transform="translate(0.000000,500.000000) scale(0.100000,-0.100000)"
fill="#000000" stroke="none">
<path d="M1 3908 c0 -603 4 -1084 9 -1072 4 11 22 33 40 47 l32 27 217 0 218
0 26 98 c71 272 208 544 384 762 72 89 254 267 338 331 213 163 471 289 727
356 l98 26 0 218 0 217 27 32 c14 18 36 36 47 40 12 5 -469 9 -1071 9 l-1093
1 1 -1092z"/>
<path d="M2836 4990 c11 -4 33 -22 47 -40 l27 -32 0 -217 0 -218 98 -26 c256
-67 514 -193 727 -356 84 -64 266 -242 338 -331 176 -218 313 -490 384 -762
l26 -98 218 0 217 0 32 -27 c18 -14 36 -36 40 -47 5 -12 9 469 9 1072 l1 1092
-1092 -1 c-603 0 -1084 -4 -1072 -9z"/>
<path d="M1954 3841 c-365 -149 -664 -454 -805 -819 -46 -120 -56 -112 135
-112 152 0 165 -1 191 -22 52 -41 55 -61 55 -388 0 -327 -3 -347 -55 -388 -26
-21 -39 -22 -191 -22 -191 0 -181 8 -135 -112 142 -367 444 -673 808 -820 143
-57 133 -67 133 126 0 152 1 165 22 191 41 52 61 55 388 55 327 0 347 -3 388
-55 21 -26 22 -39 22 -191 0 -191 -8 -181 112 -135 367 142 673 444 820 808
57 143 67 133 -126 133 -152 0 -165 1 -191 22 -52 41 -55 61 -55 388 0 327 3
347 55 388 26 21 39 22 191 22 191 0 181 -8 135 112 -142 367 -444 673 -808
820 -143 57 -133 67 -133 -126 0 -152 -1 -165 -22 -191 -41 -52 -61 -55 -388
-55 -327 0 -347 3 -388 55 -21 26 -22 39 -22 191 0 194 9 185 -136 125z m637
-885 c190 -41 337 -194 369 -385 41 -246 -137 -488 -389 -531 -246 -41 -488
137 -531 389 -40 236 125 474 364 526 80 17 107 18 187 1z"/>
<path d="M1 1093 l-1 -1093 1093 1 c602 0 1083 4 1071 9 -11 4 -33 22 -47 40
l-27 32 0 217 0 218 -98 26 c-272 71 -544 208 -762 384 -89 72 -267 254 -331
338 -163 213 -289 471 -356 727 l-26 98 -218 0 -217 0 -32 27 c-18 14 -36 36
-40 47 -5 12 -9 -469 -9 -1071z"/>
<path d="M4990 2166 c0 -8 -16 -28 -35 -45 l-36 -31 -218 0 -218 0 -26 -98
c-67 -256 -193 -514 -356 -727 -64 -84 -242 -266 -331 -338 -218 -176 -490
-313 -762 -384 l-98 -26 0 -218 0 -217 -27 -32 c-14 -18 -36 -36 -47 -40 -12
-5 469 -9 1072 -9 l1092 -1 0 1090 c0 600 -2 1090 -5 1090 -3 0 -5 -6 -5 -14z"/>
</g>
</svg>
